<svg id="Слой_1" data-name="Слой 1" xmlns="http://www.w3.org/2000/svg" viewBox="0 0 23.52 24.81"><defs><style>.cls-1,.cls-2{fill:none;stroke:#000;stroke-miterlimit:10;}.cls-1{stroke-width:2px;}.cls-2{stroke-linecap:round;}</style></defs><title>icon-premium</title><path class="cls-1" d="M13,20,23.4,9.82c1.48-1.65,1-7.14,1-7.14s-5.51.15-7,1.8L8.51,15.94Z" transform="translate(-1.97 -1.65)"/><path class="cls-2" d="M11,22.18c-1.1,1.23-6.23,2.46-6.23,2.46s.66-5.23,1.77-6.47" transform="translate(-1.97 -1.65)"/><circle class="cls-2" cx="17.12" cy="6.98" r="1"/><path class="cls-2" d="M10.66,13.17h0A4,4,0,0,0,5,13.48L3,15.71l5,.44" transform="translate(-1.97 -1.65)"/><path class="cls-2" d="M15.5,17.51h0a4,4,0,0,1,.31,5.65l-2,2.23-1-4.91" transform="translate(-1.97 -1.65)"/></svg>