<svg id="Слой_1" data-name="Слой 1" xmlns="http://www.w3.org/2000/svg" viewBox="0 0 25.85 24.66"><defs><style>.cls-1{fill:none;stroke:#000;stroke-miterlimit:10;stroke-width:2px;}</style></defs><title>icon-standard</title><path class="cls-1" d="M7.86,19.44l2.54,5.42,2-1.78-1-4.41,3-2.77.44-.4,5,9.18,2.61-2.37L20.42,11l-.06-.54L25,6.24a1.77,1.77,0,0,0,.12-2.49l-.3-.33a1.76,1.76,0,0,0-2.48-.11L17.69,7.53l-.53-.11-11.07-3L3.48,6.76l8.67,5.81-.45.4-3,2.77L4.37,14.28l-2,1.78,5.15,3.05Z" transform="translate(-0.74 -1.85)"/></svg>