<svg id="Слой_1" data-name="Слой 1" xmlns="http://www.w3.org/2000/svg" viewBox="0 0 26.68 23.88"><defs><style>.cls-1,.cls-2,.cls-3{fill:none;stroke:#000;stroke-miterlimit:10}.cls-1{stroke-width:2px}.cls-3{stroke-linecap:round}</style></defs><title>icon-free</title><path class="cls-1" d="M2.36 11.23L9 15.43l1.83 7.9a.2.2 0 0 0 .38 0L13 18.26a.2.2 0 0 1 .3-.1l7.44 4.7a.21.21 0 0 0 .3-.11L27 3.18a.1.1 0 0 0-.13-.12L2.41 10.87a.2.2 0 0 0-.05.36z" transform="translate(-1.27 -2.05)"/><path class="cls-2" d="M25.73.95L7.75 13.38m3.88 2.27L25.73.95"/><path class="cls-3" d="M2.71 21.43l3.53-2.83m-3.53 6.83l4.4-3.52" transform="translate(-1.27 -2.05)"/></svg>